<?xml version="1.0" encoding="iso-8859-1"?>
<!-- Generator: Adobe Illustrator 19.0.0, SVG Export Plug-In . SVG Version: 6.00 Build 0)  -->
<svg version="1.1" xmlns="http://www.w3.org/2000/svg" xmlns:xlink="http://www.w3.org/1999/xlink" x="0px" y="0px"
	 viewBox="0 0 449.306 449.306" style="enable-background:new 0 0 449.306 449.306;" xml:space="preserve">
<linearGradient id="a" gradientUnits="userSpaceOnUse" x1="256" x2="256" y1="30" y2="438.078"><stop offset="0" stop-color="#00efd1"/><stop offset="1" stop-color="#00acea"/></linearGradient>
<g fill="url(#a)">
	<path d="M438.857,338.547H126.433c-8.363,0.294-15.38-6.247-15.673-14.61c-0.012-0.354-0.012-0.709,0-1.064
		V10.449C110.759,4.678,115.437,0,121.208,0c5.771,0,10.449,4.678,10.449,10.449v307.2h307.2c5.771,0,10.449,4.678,10.449,10.449
		S444.628,338.547,438.857,338.547z"/>
	<path d="M328.098,449.306c-5.771,0-10.449-4.678-10.449-10.449v-53.29c0-5.771,4.678-10.449,10.449-10.449
		s10.449,4.678,10.449,10.449v53.29C338.547,444.628,333.869,449.306,328.098,449.306z"/>
	<path d="M328.098,293.094c-5.771,0-10.449-4.678-10.449-10.449V131.657H168.751
		c-5.771,0-10.449-4.678-10.449-10.449c0-5.771,4.678-10.449,10.449-10.449h154.122c8.363-0.294,15.38,6.247,15.673,14.61
		c0.012,0.354,0.012,0.709,0,1.064v156.212C338.547,288.416,333.869,293.094,328.098,293.094z"/>
	<path d="M68.963,131.657H10.449C4.678,131.657,0,126.979,0,121.208c0-5.771,4.678-10.449,10.449-10.449
		h58.514c5.771,0,10.449,4.678,10.449,10.449C79.412,126.979,74.734,131.657,68.963,131.657z"/>
</g>
<g>
</g>
<g>
</g>
<g>
</g>
<g>
</g>
<g>
</g>
<g>
</g>
<g>
</g>
<g>
</g>
<g>
</g>
<g>
</g>
<g>
</g>
<g>
</g>
<g>
</g>
<g>
</g>
<g>
</g>
</svg>
